<svg xmlns="http://www.w3.org/2000/svg" version="1.1" width="225.00000000000003" height="225.00000000000003" viewBox="0 0 225.00000000000003 225.00000000000003"><defs><clipPath id="clip-1"><rect x="0" y="25" width="200" height="200"/></clipPath></defs><path fill="none" stroke="#000000" d="M 0,225 L 0,25" style="stroke-width: 2px;opacity: 0.1" stroke-width="2" opacity="0.1"/><path fill="none" stroke="#000000" d="M 16.6667,225 L 16.6667,25" style="stroke-width: 2px;opacity: 0.1" stroke-width="2" opacity="0.1"/><path fill="none" stroke="#000000" d="M 33.3333,225 L 33.3333,25" style="stroke-width: 2px;opacity: 0.1" stroke-width="2" opacity="0.1"/><path fill="none" stroke="#000000" d="M 50,225 L 50,25" style="stroke-width: 2px;opacity: 0.1" stroke-width="2" opacity="0.1"/><path fill="none" stroke="#000000" d="M 66.6667,225 L 66.6667,25" style="stroke-width: 2px;opacity: 0.1" stroke-width="2" opacity="0.1"/><path fill="none" stroke="#000000" d="M 83.3333,225 L 83.3333,25" style="stroke-width: 2px;opacity: 0.1" stroke-width="2" opacity="0.1"/><path fill="none" stroke="#000000" d="M 100,225 L 100,25" style="stroke-width: 2px;opacity: 0.1" stroke-width="2" opacity="0.1"/><path fill="none" stroke="#000000" d="M 116.667,225 L 116.667,25" style="stroke-width: 2px;opacity: 0.1" stroke-width="2" opacity="0.1"/><path fill="none" stroke="#000000" d="M 133.333,225 L 133.333,25" style="stroke-width: 2px;opacity: 0.1" stroke-width="2" opacity="0.1"/><path fill="none" stroke="#000000" d="M 150,225 L 150,25" style="stroke-width: 2px;opacity: 0.1" stroke-width="2" opacity="0.1"/><path fill="none" stroke="#000000" d="M 166.667,225 L 166.667,25" style="stroke-width: 2px;opacity: 0.1" stroke-width="2" opacity="0.1"/><path fill="none" stroke="#000000" d="M 183.333,225 L 183.333,25" style="stroke-width: 2px;opacity: 0.1" stroke-width="2" opacity="0.1"/><path fill="none" stroke="#000000" d="M 200,225 L 200,25" style="stroke-width: 2px;opacity: 0.1" stroke-width="2" opacity="0.1"/><path fill="none" stroke="#000000" d="M 0,225 L 200,225" style="stroke-width: 2px;opacity: 0.1" stroke-width="2" opacity="0.1"/><path fill="none" stroke="#000000" d="M 0,208.333 L 200,208.333" style="stroke-width: 2px;opacity: 0.1" stroke-width="2" opacity="0.1"/><path fill="none" stroke="#000000" d="M 0,191.667 L 200,191.667" style="stroke-width: 2px;opacity: 0.1" stroke-width="2" opacity="0.1"/><path fill="none" stroke="#000000" d="M 0,175 L 200,175" style="stroke-width: 2px;opacity: 0.1" stroke-width="2" opacity="0.1"/><path fill="none" stroke="#000000" d="M 0,158.333 L 200,158.333" style="stroke-width: 2px;opacity: 0.1" stroke-width="2" opacity="0.1"/><path fill="none" stroke="#000000" d="M 0,141.667 L 200,141.667" style="stroke-width: 2px;opacity: 0.1" stroke-width="2" opacity="0.1"/><path fill="none" stroke="#000000" d="M 0,125 L 200,125" style="stroke-width: 2px;opacity: 0.1" stroke-width="2" opacity="0.1"/><path fill="none" stroke="#000000" d="M 0,108.333 L 200,108.333" style="stroke-width: 2px;opacity: 0.1" stroke-width="2" opacity="0.1"/><path fill="none" stroke="#000000" d="M 0,91.6667 L 200,91.6667" style="stroke-width: 2px;opacity: 0.1" stroke-width="2" opacity="0.1"/><path fill="none" stroke="#000000" d="M 0,75 L 200,75" style="stroke-width: 2px;opacity: 0.1" stroke-width="2" opacity="0.1"/><path fill="none" stroke="#000000" d="M 0,58.3333 L 200,58.3333" style="stroke-width: 2px;opacity: 0.1" stroke-width="2" opacity="0.1"/><path fill="none" stroke="#000000" d="M 0,41.6667 L 200,41.6667" style="stroke-width: 2px;opacity: 0.1" stroke-width="2" opacity="0.1"/><path fill="none" stroke="#000000" d="M 0,25 L 200,25" style="stroke-width: 2px;opacity: 0.1" stroke-width="2" opacity="0.1"/><path fill="none" stroke="#000000" d="M -3.45,130.6 C -3.1,128.5 0.75,125.35 1.8,125 C 0.75,124.65 -3.1,121.5 -3.45,119.4" transform="rotate(180 1.7999999999999972 125.00000000000001)" style="stroke-width: 2px;opacity: 1;stroke-linejoin: round;stroke-linecap: round" stroke-width="2" opacity="1" stroke-linejoin="round" stroke-linecap="round"/><path fill="none" stroke="#000000" d="M 100,125 S 100,125 1.05,125" style="stroke-width: 2px;opacity: 1" stroke-width="2" opacity="1"/><path fill="none" stroke="#000000" d="M 194.45,130.6 C 194.8,128.5 198.65,125.35 199.7,125 C 198.65,124.65 194.8,121.5 194.45,119.4" transform="" style="stroke-width: 2px;opacity: 1;stroke-linejoin: round;stroke-linecap: round" stroke-width="2" opacity="1" stroke-linejoin="round" stroke-linecap="round"/><path fill="none" stroke="#000000" d="M 100,125 S 100,125 198.95,125" style="stroke-width: 2px;opacity: 1" stroke-width="2" opacity="1"/><path fill="none" stroke="#000000" d="M 95.5,229.55 C 95.85,227.45 99.7,224.3 100.75,223.95 C 99.7,223.6 95.85,220.45 95.5,218.35" transform="rotate(90 100.75 223.95000000000002)" style="stroke-width: 2px;opacity: 1;stroke-linejoin: round;stroke-linecap: round" stroke-width="2" opacity="1" stroke-linejoin="round" stroke-linecap="round"/><path fill="none" stroke="#000000" d="M 100,125 S 100,125 100,223.95" style="stroke-width: 2px;opacity: 1" stroke-width="2" opacity="1"/><path fill="none" stroke="#000000" d="M 95.5,31.65 C 95.85,29.55 99.7,26.4 100.75,26.05 C 99.7,25.7 95.85,22.55 95.5,20.45" transform="rotate(-90 100.75 26.05000000000001)" style="stroke-width: 2px;opacity: 1;stroke-linejoin: round;stroke-linecap: round" stroke-width="2" opacity="1" stroke-linejoin="round" stroke-linecap="round"/><path fill="none" stroke="#000000" d="M 100,125 S 100,125 100,26.05" style="stroke-width: 2px;opacity: 1" stroke-width="2" opacity="1"/><path fill="none" stroke="#000000" d="M 133.333,130 L 133.333,120" style="stroke-width: 1px;opacity: 1" stroke-width="1" opacity="1"/><path fill="none" stroke="#000000" d="M 166.667,130 L 166.667,120" style="stroke-width: 1px;opacity: 1" stroke-width="1" opacity="1"/><path fill="none" stroke="#000000" d="M 66.6667,130 L 66.6667,120" style="stroke-width: 1px;opacity: 1" stroke-width="1" opacity="1"/><path fill="none" stroke="#000000" d="M 33.3333,130 L 33.3333,120" style="stroke-width: 1px;opacity: 1" stroke-width="1" opacity="1"/><path fill="none" stroke="#000000" d="M 95,91.6667 L 105,91.6667" style="stroke-width: 1px;opacity: 1" stroke-width="1" opacity="1"/><path fill="none" stroke="#000000" d="M 95,58.3333 L 105,58.3333" style="stroke-width: 1px;opacity: 1" stroke-width="1" opacity="1"/><path fill="none" stroke="#000000" d="M 95,158.333 L 105,158.333" style="stroke-width: 1px;opacity: 1" stroke-width="1" opacity="1"/><path fill="none" stroke="#000000" d="M 95,191.667 L 105,191.667" style="stroke-width: 1px;opacity: 1" stroke-width="1" opacity="1"/><path fill="none" stroke="#11accd" d="M 0,-475 L 0.5,-469.015 L 1,-463.06 L 1.5,-457.135 L 2,-451.24 L 2.5,-445.375 L 3,-439.54 L 3.5,-433.735 L 4,-427.96 L 4.5,-422.215 L 5,-416.5 L 5.5,-410.815 L 6,-405.16 L 6.5,-399.535 L 7,-393.94 L 7.5,-388.375 L 8,-382.84 L 8.5,-377.335 L 9,-371.86 L 9.5,-366.415 L 10,-361 L 10.5,-355.615 L 11,-350.26 L 11.5,-344.935 L 12,-339.64 L 12.5,-334.375 L 13,-329.14 L 13.5,-323.935 L 14,-318.76 L 14.5,-313.615 L 15,-308.5 L 15.5,-303.415 L 16,-298.36 L 16.5,-293.335 L 17,-288.34 L 17.5,-283.375 L 18,-278.44 L 18.5,-273.535 L 19,-268.66 L 19.5,-263.815 L 20,-259 L 20.5,-254.215 L 21,-249.46 L 21.5,-244.735 L 22,-240.04 L 22.5,-235.375 L 23,-230.74 L 23.5,-226.135 L 24,-221.56 L 24.5,-217.015 L 25,-212.5 L 25.5,-208.015 L 26,-203.56 L 26.5,-199.135 L 27,-194.74 L 27.5,-190.375 L 28,-186.04 L 28.5,-181.735 L 29,-177.46 L 29.5,-173.215 L 30,-169 L 30.5,-164.815 L 31,-160.66 L 31.5,-156.535 L 32,-152.44 L 32.5,-148.375 L 33,-144.34 L 33.5,-140.335 L 34,-136.36 L 34.5,-132.415 L 35,-128.5 L 35.5,-124.615 L 36,-120.76 L 36.5,-116.935 L 37,-113.14 L 37.5,-109.375 L 38,-105.64 L 38.5,-101.935 L 39,-98.26 L 39.5,-94.615 L 40,-91 L 40.5,-87.415 L 41,-83.86 L 41.5,-80.335 L 42,-76.84 L 42.5,-73.375 L 43,-69.94 L 43.5,-66.535 L 44,-63.16 L 44.5,-59.815 L 45,-56.5 L 45.5,-53.215 L 46,-49.96 L 46.5,-46.735 L 47,-43.54 L 47.5,-40.375 L 48,-37.24 L 48.5,-34.135 L 49,-31.06 L 49.5,-28.015 L 50,-25 L 50.5,-22.015 L 51,-19.06 L 51.5,-16.135 L 52,-13.24 L 52.5,-10.375 L 53,-7.54 L 53.5,-4.735 L 54,-1.96 L 54.5,0.785 L 55,3.5 L 55.5,6.185 L 56,8.84 L 56.5,11.465 L 57,14.06 L 57.5,16.625 L 58,19.16 L 58.5,21.665 L 59,24.14 L 59.5,26.585 L 60,29 L 60.5,31.385 L 61,33.74 L 61.5,36.065 L 62,38.36 L 62.5,40.625 L 63,42.86 L 63.5,45.065 L 64,47.24 L 64.5,49.385 L 65,51.5 L 65.5,53.585 L 66,55.64 L 66.5,57.665 L 67,59.66 L 67.5,61.625 L 68,63.56 L 68.5,65.465 L 69,67.34 L 69.5,69.185 L 70,71 L 70.5,72.785 L 71,74.54 L 71.5,76.265 L 72,77.96 L 72.5,79.625 L 73,81.26 L 73.5,82.865 L 74,84.44 L 74.5,85.985 L 75,87.5 L 75.5,88.985 L 76,90.44 L 76.5,91.865 L 77,93.26 L 77.5,94.625 L 78,95.96 L 78.5,97.265 L 79,98.54 L 79.5,99.785 L 80,101 L 80.5,102.185 L 81,103.34 L 81.5,104.465 L 82,105.56 L 82.5,106.625 L 83,107.66 L 83.5,108.665 L 84,109.64 L 84.5,110.585 L 85,111.5 L 85.5,112.385 L 86,113.24 L 86.5,114.065 L 87,114.86 L 87.5,115.625 L 88,116.36 L 88.5,117.065 L 89,117.74 L 89.5,118.385 L 90,119 L 90.5,119.585 L 91,120.14 L 91.5,120.665 L 92,121.16 L 92.5,121.625 L 93,122.06 L 93.5,122.465 L 94,122.84 L 94.5,123.185 L 95,123.5 L 95.5,123.785 L 96,124.04 L 96.5,124.265 L 97,124.46 L 97.5,124.625 L 98,124.76 L 98.5,124.865 L 99,124.94 L 99.5,124.985 L 100,125 L 100.5,124.985 L 101,124.94 L 101.5,124.865 L 102,124.76 L 102.5,124.625 L 103,124.46 L 103.5,124.265 L 104,124.04 L 104.5,123.785 L 105,123.5 L 105.5,123.185 L 106,122.84 L 106.5,122.465 L 107,122.06 L 107.5,121.625 L 108,121.16 L 108.5,120.665 L 109,120.14 L 109.5,119.585 L 110,119 L 110.5,118.385 L 111,117.74 L 111.5,117.065 L 112,116.36 L 112.5,115.625 L 113,114.86 L 113.5,114.065 L 114,113.24 L 114.5,112.385 L 115,111.5 L 115.5,110.585 L 116,109.64 L 116.5,108.665 L 117,107.66 L 117.5,106.625 L 118,105.56 L 118.5,104.465 L 119,103.34 L 119.5,102.185 L 120,101 L 120.5,99.785 L 121,98.54 L 121.5,97.265 L 122,95.96 L 122.5,94.625 L 123,93.26 L 123.5,91.865 L 124,90.44 L 124.5,88.985 L 125,87.5 L 125.5,85.985 L 126,84.44 L 126.5,82.865 L 127,81.26 L 127.5,79.625 L 128,77.96 L 128.5,76.265 L 129,74.54 L 129.5,72.785 L 130,71 L 130.5,69.185 L 131,67.34 L 131.5,65.465 L 132,63.56 L 132.5,61.625 L 133,59.66 L 133.5,57.665 L 134,55.64 L 134.5,53.585 L 135,51.5 L 135.5,49.385 L 136,47.24 L 136.5,45.065 L 137,42.86 L 137.5,40.625 L 138,38.36 L 138.5,36.065 L 139,33.74 L 139.5,31.385 L 140,29 L 140.5,26.585 L 141,24.14 L 141.5,21.665 L 142,19.16 L 142.5,16.625 L 143,14.06 L 143.5,11.465 L 144,8.84 L 144.5,6.185 L 145,3.5 L 145.5,0.785 L 146,-1.96 L 146.5,-4.735 L 147,-7.54 L 147.5,-10.375 L 148,-13.24 L 148.5,-16.135 L 149,-19.06 L 149.5,-22.015 L 150,-25 L 150.5,-28.015 L 151,-31.06 L 151.5,-34.135 L 152,-37.24 L 152.5,-40.375 L 153,-43.54 L 153.5,-46.735 L 154,-49.96 L 154.5,-53.215 L 155,-56.5 L 155.5,-59.815 L 156,-63.16 L 156.5,-66.535 L 157,-69.94 L 157.5,-73.375 L 158,-76.84 L 158.5,-80.335 L 159,-83.86 L 159.5,-87.415 L 160,-91 L 160.5,-94.615 L 161,-98.26 L 161.5,-101.935 L 162,-105.64 L 162.5,-109.375 L 163,-113.14 L 163.5,-116.935 L 164,-120.76 L 164.5,-124.615 L 165,-128.5 L 165.5,-132.415 L 166,-136.36 L 166.5,-140.335 L 167,-144.34 L 167.5,-148.375 L 168,-152.44 L 168.5,-156.535 L 169,-160.66 L 169.5,-164.815 L 170,-169 L 170.5,-173.215 L 171,-177.46 L 171.5,-181.735 L 172,-186.04 L 172.5,-190.375 L 173,-194.74 L 173.5,-199.135 L 174,-203.56 L 174.5,-208.015 L 175,-212.5 L 175.5,-217.015 L 176,-221.56 L 176.5,-226.135 L 177,-230.74 L 177.5,-235.375 L 178,-240.04 L 178.5,-244.735 L 179,-249.46 L 179.5,-254.215 L 180,-259 L 180.5,-263.815 L 181,-268.66 L 181.5,-273.535 L 182,-278.44 L 182.5,-283.375 L 183,-288.34 L 183.5,-293.335 L 184,-298.36 L 184.5,-303.415 L 185,-308.5 L 185.5,-313.615 L 186,-318.76 L 186.5,-323.935 L 187,-329.14 L 187.5,-334.375 L 188,-339.64 L 188.5,-344.935 L 189,-350.26 L 189.5,-355.615 L 190,-361 L 190.5,-366.415 L 191,-371.86 L 191.5,-377.335 L 192,-382.84 L 192.5,-388.375 L 193,-393.94 L 193.5,-399.535 L 194,-405.16 L 194.5,-410.815 L 195,-416.5 L 195.5,-422.215 L 196,-427.96 L 196.5,-433.735 L 197,-439.54 L 197.5,-445.375 L 198,-451.24 L 198.5,-457.135 L 199,-463.06 L 199.5,-469.015" style="stroke-width: 3px" stroke-width="3" clip-path="url(#clip-1)"/></svg>